<svg version="1.1" viewBox="0.0 0.0 960.0 720.0" fill="none" stroke="none" stroke-linecap="square" stroke-miterlimit="10" xmlns:xlink="http://www.w3.org/1999/xlink" xmlns="http://www.w3.org/2000/svg"><clipPath id="p.0"><path d="m0 0l960.0 0l0 720.0l-960.0 0l0 -720.0z" clip-rule="nonzero"/></clipPath><g clip-path="url(#p.0)"><path fill="#000000" fill-opacity="0.0" d="m0 0l960.0 0l0 720.0l-960.0 0z" fill-rule="evenodd"/><path fill="#000000" fill-opacity="0.0" d="m249.16273 194.46611l0 0c0 -42.510834 34.461838 -76.97267 76.97267 -76.97267l307.88144 0l0 0c20.414429 0 39.992737 8.109596 54.427856 22.54477c14.435181 14.435181 22.5448 34.013474 22.5448 54.427902l0 333.42474c0 42.510803 -34.461853 76.97266 -76.97266 76.97266l-307.88144 0c-42.510834 0 -76.97267 -34.461853 -76.97267 -76.97266z" fill-rule="evenodd"/><path stroke="#000000" stroke-width="24.0" stroke-linejoin="round" stroke-linecap="butt" d="m249.16273 194.46611l0 0c0 -42.510834 34.461838 -76.97267 76.97267 -76.97267l307.88144 0l0 0c20.414429 0 39.992737 8.109596 54.427856 22.54477c14.435181 14.435181 22.5448 34.013474 22.5448 54.427902l0 333.42474c0 42.510803 -34.461853 76.97266 -76.97266 76.97266l-307.88144 0c-42.510834 0 -76.97267 -34.461853 -76.97267 -76.97266z" fill-rule="evenodd"/><path fill="#000000" fill-opacity="0.0" d="m796.06036 200.54855c-19.448792 0 -29.173218 0.03149414 -38.897644 0.06298828c-9.724426 0.0315094 -19.448792 0.06300354 -38.897644 0.06300354" fill-rule="evenodd"/><path stroke="#000000" stroke-width="8.0" stroke-linejoin="round" stroke-linecap="butt" d="m773.66034 200.56726l-0.6954346 9.765625E-4c-6.077759 0.011810303 -10.939941 0.027557373 -15.802185 0.043304443c-9.724426 0.0315094 -19.448792 0.06300354 -38.897644 0.06300354" fill-rule="evenodd"/><path fill="#000000" stroke="#000000" stroke-width="8.0" stroke-linecap="butt" d="m792.06036 200.5519c0.004272461 5.081024 -4.111267 9.203445 -9.192322 9.207687c-5.0809937 0.0042419434 -9.20343 -4.1112976 -9.207642 -9.192322c-0.004272461 -5.081009 4.111267 -9.20343 9.192261 -9.207672c5.0810547 -0.0042419434 9.203491 4.1112976 9.207703 9.1923065z" fill-rule="nonzero"/><g filter="url(#shadowFilter-p.1)"><use xlink:href="#p.1" transform="matrix(1.0 0.0 0.0 1.0 0.0 2.0)"/></g><defs><filter id="shadowFilter-p.1" filterUnits="userSpaceOnUse"><feGaussianBlur in="SourceAlpha" stdDeviation="2.0" result="blur"/><feComponentTransfer in="blur" color-interpolation-filters="sRGB"><feFuncR type="linear" slope="0" intercept="0.0"/><feFuncG type="linear" slope="0" intercept="0.0"/><feFuncB type="linear" slope="0" intercept="0.0"/><feFuncA type="linear" slope="0.5" intercept="0"/></feComponentTransfer></filter></defs><g id="p.1"><path fill="#000000" fill-opacity="0.0" d="m699.3307 200.67455l83.87402 0" fill-rule="evenodd"/><path stroke="#000000" stroke-width="24.0" stroke-linejoin="round" stroke-linecap="butt" d="m699.3307 200.67455l83.87402 0" fill-rule="evenodd"/></g><path fill="#000000" fill-opacity="0.0" d="m796.06036 280.83203c-19.448792 0 -29.173218 0.03149414 -38.897644 0.06298828c-9.724426 0.03149414 -19.448792 0.06298828 -38.897644 0.06298828" fill-rule="evenodd"/><path stroke="#000000" stroke-width="8.0" stroke-linejoin="round" stroke-linecap="butt" d="m773.66034 280.8507l-0.6954346 0.0010070801c-6.077759 0.011810303 -10.939941 0.027557373 -15.802185 0.043304443c-9.724426 0.03149414 -19.448792 0.06298828 -38.897644 0.06298828" fill-rule="evenodd"/><path fill="#000000" stroke="#000000" stroke-width="8.0" stroke-linecap="butt" d="m792.06036 280.83536c0.004272461 5.081024 -4.111267 9.20343 -9.192322 9.207672c-5.0809937 0.004272461 -9.20343 -4.111267 -9.207642 -9.192291c-0.004272461 -5.081024 4.111267 -9.20343 9.192261 -9.207703c5.0810547 -0.0042419434 9.203491 4.1112976 9.207703 9.192322z" fill-rule="nonzero"/><g filter="url(#shadowFilter-p.2)"><use xlink:href="#p.2" transform="matrix(1.0 0.0 0.0 1.0 0.0 2.0)"/></g><defs><filter id="shadowFilter-p.2" filterUnits="userSpaceOnUse"><feGaussianBlur in="SourceAlpha" stdDeviation="2.0" result="blur"/><feComponentTransfer in="blur" color-interpolation-filters="sRGB"><feFuncR type="linear" slope="0" intercept="0.0"/><feFuncG type="linear" slope="0" intercept="0.0"/><feFuncB type="linear" slope="0" intercept="0.0"/><feFuncA type="linear" slope="0.5" intercept="0"/></feComponentTransfer></filter></defs><g id="p.2"><path fill="#000000" fill-opacity="0.0" d="m699.3307 280.958l83.87402 0" fill-rule="evenodd"/><path stroke="#000000" stroke-width="24.0" stroke-linejoin="round" stroke-linecap="butt" d="m699.3307 280.958l83.87402 0" fill-rule="evenodd"/></g><path fill="#000000" fill-opacity="0.0" d="m796.06036 361.11548c-19.448792 0 -29.173218 0.03149414 -38.897644 0.06298828c-9.724426 0.03149414 -19.448792 0.06298828 -38.897644 0.06298828" fill-rule="evenodd"/><path stroke="#000000" stroke-width="8.0" stroke-linejoin="round" stroke-linecap="butt" d="m773.66034 361.1342l-0.6954346 9.765625E-4c-6.077759 0.011810303 -10.939941 0.027557373 -15.802185 0.043304443c-9.724426 0.03149414 -19.448792 0.06298828 -38.897644 0.06298828" fill-rule="evenodd"/><path fill="#000000" stroke="#000000" stroke-width="8.0" stroke-linecap="butt" d="m792.06036 361.11884c0.004272461 5.081024 -4.111267 9.20343 -9.192322 9.207672c-5.0809937 0.0042419434 -9.20343 -4.1112976 -9.207642 -9.192322c-0.004272461 -5.0809937 4.111267 -9.20343 9.192261 -9.207672c5.0810547 -0.0042419434 9.203491 4.1112976 9.207703 9.192322z" fill-rule="nonzero"/><g filter="url(#shadowFilter-p.3)"><use xlink:href="#p.3" transform="matrix(1.0 0.0 0.0 1.0 0.0 2.0)"/></g><defs><filter id="shadowFilter-p.3" filterUnits="userSpaceOnUse"><feGaussianBlur in="SourceAlpha" stdDeviation="2.0" result="blur"/><feComponentTransfer in="blur" color-interpolation-filters="sRGB"><feFuncR type="linear" slope="0" intercept="0.0"/><feFuncG type="linear" slope="0" intercept="0.0"/><feFuncB type="linear" slope="0" intercept="0.0"/><feFuncA type="linear" slope="0.5" intercept="0"/></feComponentTransfer></filter></defs><g id="p.3"><path fill="#000000" fill-opacity="0.0" d="m699.3307 361.24146l83.87402 0" fill-rule="evenodd"/><path stroke="#000000" stroke-width="24.0" stroke-linejoin="round" stroke-linecap="butt" d="m699.3307 361.24146l83.87402 0" fill-rule="evenodd"/></g><path fill="#000000" fill-opacity="0.0" d="m796.06036 521.68243c-19.448792 0 -29.173218 0.03149414 -38.897644 0.06298828c-9.724426 0.03149414 -19.448792 0.06298828 -38.897644 0.06298828" fill-rule="evenodd"/><path stroke="#000000" stroke-width="8.0" stroke-linejoin="round" stroke-linecap="butt" d="m773.66034 521.7011l-0.6954346 9.765625E-4c-6.077759 0.01184082 -10.939941 0.02758789 -15.802185 0.04333496c-9.724426 0.03149414 -19.448792 0.06298828 -38.897644 0.06298828" fill-rule="evenodd"/><path fill="#000000" stroke="#000000" stroke-width="8.0" stroke-linecap="butt" d="m792.06036 521.6857c0.004272461 5.0810547 -4.111267 9.203491 -9.192322 9.207703c-5.0809937 0.004272461 -9.20343 -4.111267 -9.207642 -9.192322c-0.004272461 -5.0809937 4.111267 -9.20343 9.192261 -9.207642c5.0810547 -0.004272461 9.203491 4.111267 9.207703 9.192261z" fill-rule="nonzero"/><g filter="url(#shadowFilter-p.4)"><use xlink:href="#p.4" transform="matrix(1.0 0.0 0.0 1.0 0.0 2.0)"/></g><defs><filter id="shadowFilter-p.4" filterUnits="userSpaceOnUse"><feGaussianBlur in="SourceAlpha" stdDeviation="2.0" result="blur"/><feComponentTransfer in="blur" color-interpolation-filters="sRGB"><feFuncR type="linear" slope="0" intercept="0.0"/><feFuncG type="linear" slope="0" intercept="0.0"/><feFuncB type="linear" slope="0" intercept="0.0"/><feFuncA type="linear" slope="0.5" intercept="0"/></feComponentTransfer></filter></defs><g id="p.4"><path fill="#000000" fill-opacity="0.0" d="m699.3307 521.8084l83.87402 0" fill-rule="evenodd"/><path stroke="#000000" stroke-width="24.0" stroke-linejoin="round" stroke-linecap="butt" d="m699.3307 521.8084l83.87402 0" fill-rule="evenodd"/></g><path fill="#000000" fill-opacity="0.0" d="m796.06036 441.39896c-19.448792 0 -29.173218 0.03149414 -38.897644 0.06298828c-9.724426 0.03149414 -19.448792 0.06298828 -38.897644 0.06298828" fill-rule="evenodd"/><path stroke="#000000" stroke-width="8.0" stroke-linejoin="round" stroke-linecap="butt" d="m773.66034 441.41766l-0.6954346 9.765625E-4c-6.077759 0.011810303 -10.939941 0.027557373 -15.802185 0.043304443c-9.724426 0.03149414 -19.448792 0.06298828 -38.897644 0.06298828" fill-rule="evenodd"/><path fill="#000000" stroke="#000000" stroke-width="8.0" stroke-linecap="butt" d="m792.06036 441.40228c0.004272461 5.081024 -4.111267 9.203461 -9.192322 9.207703c-5.0809937 0.0042419434 -9.20343 -4.1112976 -9.207642 -9.192322c-0.004272461 -5.081024 4.111267 -9.20343 9.192261 -9.207672c5.0810547 -0.0042419434 9.203491 4.111267 9.207703 9.192291z" fill-rule="nonzero"/><g filter="url(#shadowFilter-p.5)"><use xlink:href="#p.5" transform="matrix(1.0 0.0 0.0 1.0 0.0 2.0)"/></g><defs><filter id="shadowFilter-p.5" filterUnits="userSpaceOnUse"><feGaussianBlur in="SourceAlpha" stdDeviation="2.0" result="blur"/><feComponentTransfer in="blur" color-interpolation-filters="sRGB"><feFuncR type="linear" slope="0" intercept="0.0"/><feFuncG type="linear" slope="0" intercept="0.0"/><feFuncB type="linear" slope="0" intercept="0.0"/><feFuncA type="linear" slope="0.5" intercept="0"/></feComponentTransfer></filter></defs><g id="p.5"><path fill="#000000" fill-opacity="0.0" d="m699.3307 441.52493l83.87402 0" fill-rule="evenodd"/><path stroke="#000000" stroke-width="24.0" stroke-linejoin="round" stroke-linecap="butt" d="m699.3307 441.52493l83.87402 0" fill-rule="evenodd"/></g><path fill="#000000" fill-opacity="0.0" d="m428.38977 299.28348l1.1338501 164.06299" fill-rule="evenodd"/><path stroke="#000000" stroke-width="16.0" stroke-linejoin="round" stroke-linecap="butt" d="m428.38977 299.28348l1.1338501 164.06299" fill-rule="evenodd"/><path fill="#000000" fill-opacity="0.0" d="m565.96063 287.69553l0 316.56693" fill-rule="evenodd"/><path stroke="#000000" stroke-width="16.0" stroke-linejoin="round" stroke-linecap="butt" d="m565.96063 287.69553l0 316.56693" fill-rule="evenodd"/><path fill="#000000" fill-opacity="0.0" d="m699.3307 234.4672l-81.95276 -0.81889343" fill-rule="evenodd"/><path stroke="#000000" stroke-width="16.0" stroke-linejoin="round" stroke-linecap="butt" d="m699.3307 234.4672l-81.95276 -0.81889343" fill-rule="evenodd"/><path fill="#000000" fill-opacity="0.0" d="m640.5801 397.2034l-69.25989 0.31497192" fill-rule="evenodd"/><path stroke="#000000" stroke-width="16.0" stroke-linejoin="round" stroke-linecap="butt" d="m640.5801 397.2034l-69.25989 0.31497192" fill-rule="evenodd"/><path fill="#000000" fill-opacity="0.0" d="m634.7638 393.7244l0 0c0 -13.028687 10.561829 -23.590546 23.590515 -23.590546l0 0c6.256653 0 12.256958 2.485443 16.68103 6.9095154c4.4241333 4.424103 6.909546 10.424438 6.909546 16.68103l0 0c0 13.028717 -10.561829 23.590576 -23.590576 23.590576l0 0c-13.028687 0 -23.590515 -10.561859 -23.590515 -23.590576z" fill-rule="evenodd"/><path stroke="#000000" stroke-width="16.0" stroke-linejoin="round" stroke-linecap="butt" d="m634.7638 393.7244l0 0c0 -13.028687 10.561829 -23.590546 23.590515 -23.590546l0 0c6.256653 0 12.256958 2.485443 16.68103 6.9095154c4.4241333 4.424103 6.909546 10.424438 6.909546 16.68103l0 0c0 13.028717 -10.561829 23.590576 -23.590576 23.590576l0 0c-13.028687 0 -23.590515 -10.561859 -23.590515 -23.590576z" fill-rule="evenodd"/><path fill="#000000" fill-opacity="0.0" d="m404.79922 275.6929l0 0c0 -13.028687 10.561829 -23.590546 23.590546 -23.590546l0 0c6.256592 0 12.256958 2.4854279 16.68103 6.9095154c4.424103 4.424103 6.9095154 10.424438 6.9095154 16.68103l0 0c0 13.028717 -10.561859 23.590576 -23.590546 23.590576l0 0c-13.028717 0 -23.590546 -10.561859 -23.590546 -23.590576z" fill-rule="evenodd"/><path stroke="#000000" stroke-width="16.0" stroke-linejoin="round" stroke-linecap="butt" d="m404.79922 275.6929l0 0c0 -13.028687 10.561829 -23.590546 23.590546 -23.590546l0 0c6.256592 0 12.256958 2.4854279 16.68103 6.9095154c4.424103 4.424103 6.9095154 10.424438 6.9095154 16.68103l0 0c0 13.028717 -10.561859 23.590576 -23.590546 23.590576l0 0c-13.028717 0 -23.590546 -10.561859 -23.590546 -23.590576z" fill-rule="evenodd"/><path fill="#000000" fill-opacity="0.0" d="m706.1181 231.86613l-367.1496 0" fill-rule="evenodd"/><path stroke="#000000" stroke-width="16.0" stroke-linejoin="round" stroke-linecap="butt" d="m706.1181 231.86613l-367.1496 0" fill-rule="evenodd"/><path fill="#000000" fill-opacity="0.0" d="m294.81628 274.60367l0 51.433075" fill-rule="evenodd"/><path stroke="#000000" stroke-width="16.0" stroke-linejoin="round" stroke-linecap="butt" d="m294.81628 274.60367l0 51.433075" fill-rule="evenodd"/><path fill="#000000" fill-opacity="0.0" d="m386.41995 409.72964l0 34.86615" fill-rule="evenodd"/><path stroke="#000000" stroke-width="16.0" stroke-linejoin="round" stroke-linecap="butt" d="m386.41995 409.72964l0 34.86615" fill-rule="evenodd"/><path fill="#000000" fill-opacity="0.0" d="m451.98163 275.40945l29.13385 0.56692505" fill-rule="evenodd"/><path stroke="#000000" stroke-width="16.0" stroke-linejoin="round" stroke-linecap="butt" d="m451.98163 275.40945l29.13385 0.56692505" fill-rule="evenodd"/><path fill="#000000" fill-opacity="0.0" d="m250.41733 500.38846l74.96063 0" fill-rule="evenodd"/><path stroke="#000000" stroke-width="16.0" stroke-linejoin="round" stroke-linecap="butt" d="m250.41733 500.38846l74.96063 0" fill-rule="evenodd"/><path fill="#000000" fill-opacity="0.0" d="m537.18634 328.66403l0 98.519684" fill-rule="evenodd"/><path stroke="#000000" stroke-width="16.0" stroke-linejoin="round" stroke-linecap="butt" d="m537.18634 328.66403l0 98.519684" fill-rule="evenodd"/><path fill="#000000" fill-opacity="0.0" d="m404.79922 490.01968l0 0c0 -13.028687 10.561829 -23.590546 23.590546 -23.590546l0 0c6.256592 0 12.256958 2.4854126 16.68103 6.9095154c4.424103 4.4240723 6.9095154 10.424438 6.9095154 16.68103l0 0c0 13.028717 -10.561859 23.590546 -23.590546 23.590546l0 0c-13.028717 0 -23.590546 -10.561829 -23.590546 -23.590546z" fill-rule="evenodd"/><path stroke="#000000" stroke-width="16.0" stroke-linejoin="round" stroke-linecap="butt" d="m404.79922 490.01968l0 0c0 -13.028687 10.561829 -23.590546 23.590546 -23.590546l0 0c6.256592 0 12.256958 2.4854126 16.68103 6.9095154c4.424103 4.4240723 6.9095154 10.424438 6.9095154 16.68103l0 0c0 13.028717 -10.561859 23.590546 -23.590546 23.590546l0 0c-13.028717 0 -23.590546 -10.561829 -23.590546 -23.590546z" fill-rule="evenodd"/><path fill="#000000" fill-opacity="0.0" d="m293.3727 279.8504l51.307068 -51.3071" fill-rule="evenodd"/><path stroke="#000000" stroke-width="16.0" stroke-linejoin="round" stroke-linecap="butt" d="m293.3727 279.8504l51.307068 -51.3071" fill-rule="evenodd"/><path fill="#000000" fill-opacity="0.0" d="m293.3727 318.75723l94.74014 94.74014" fill-rule="evenodd"/><path stroke="#000000" stroke-width="16.0" stroke-linejoin="round" stroke-linecap="butt" d="m293.3727 318.75723l94.74014 94.74014" fill-rule="evenodd"/><path fill="#000000" fill-opacity="0.0" d="m319.70602 504.2966l66.70868 -66.70868" fill-rule="evenodd"/><path stroke="#000000" stroke-width="16.0" stroke-linejoin="round" stroke-linecap="butt" d="m319.70602 504.2966l66.70868 -66.70868" fill-rule="evenodd"/><path fill="#000000" fill-opacity="0.0" d="m477.81104 272.1181l60.59839 60.59842" fill-rule="evenodd"/><path stroke="#000000" stroke-width="16.0" stroke-linejoin="round" stroke-linecap="butt" d="m477.81104 272.1181l60.59839 60.59842" fill-rule="evenodd"/><path fill="#000000" fill-opacity="0.0" d="m564.2703 291.7848l60.97638 -61.637802" fill-rule="evenodd"/><path stroke="#000000" stroke-width="16.0" stroke-linejoin="round" stroke-linecap="butt" d="m564.2703 291.7848l60.97638 -61.637802" fill-rule="evenodd"/><path fill="#000000" fill-opacity="0.0" d="m334.9685 552.126l140.8819 0" fill-rule="evenodd"/><path stroke="#000000" stroke-width="16.0" stroke-linejoin="round" stroke-linecap="butt" d="m334.9685 552.126l140.8819 0" fill-rule="evenodd"/><path fill="#000000" fill-opacity="0.0" d="m481.937 546.6378l0 0c0 -13.028748 10.561859 -23.590576 23.590546 -23.590576l0 0c6.256592 0 12.2569275 2.4854126 16.68106 6.909485c4.4240723 4.4241333 6.909485 10.424438 6.909485 16.681091l0 0c0 13.028687 -10.561829 23.590515 -23.590546 23.590515l0 0c-13.028687 0 -23.590546 -10.561829 -23.590546 -23.590515z" fill-rule="evenodd"/><path stroke="#000000" stroke-width="16.0" stroke-linejoin="round" stroke-linecap="butt" d="m481.937 546.6378l0 0c0 -13.028748 10.561859 -23.590576 23.590546 -23.590576l0 0c6.256592 0 12.2569275 2.4854126 16.68106 6.909485c4.4240723 4.4241333 6.909485 10.424438 6.909485 16.681091l0 0c0 13.028687 -10.561829 23.590515 -23.590546 23.590515l0 0c-13.028687 0 -23.590546 -10.561829 -23.590546 -23.590515z" fill-rule="evenodd"/><path fill="#000000" fill-opacity="0.0" d="m325.03937 562.27295l0 36.031494" fill-rule="evenodd"/><path stroke="#000000" stroke-width="16.0" stroke-linejoin="round" stroke-linecap="butt" d="m325.03937 562.27295l0 36.031494" fill-rule="evenodd"/><path fill="#000000" fill-opacity="0.0" d="m538.7113 422.57742l-68.8504 68.8504" fill-rule="evenodd"/><path stroke="#000000" stroke-width="16.0" stroke-linejoin="round" stroke-linecap="butt" d="m538.7113 422.57742l-68.8504 68.8504" fill-rule="evenodd"/><path fill="#000000" fill-opacity="0.0" d="m451.98163 489.73752l22.456696 0" fill-rule="evenodd"/><path stroke="#000000" stroke-width="16.0" stroke-linejoin="round" stroke-linecap="butt" d="m451.98163 489.73752l22.456696 0" fill-rule="evenodd"/><path fill="#000000" fill-opacity="0.0" d="m297.2467 182.5958l0 0c0 -13.028702 10.561859 -23.590546 23.590576 -23.590546l0 0c6.256592 0 12.2569275 2.4854279 16.68103 6.9095154c4.4240723 4.4240875 6.9095154 10.424438 6.9095154 16.68103l0 0c0 13.028702 -10.561859 23.59056 -23.590546 23.59056l0 0c-13.028717 0 -23.590576 -10.561859 -23.590576 -23.59056z" fill-rule="evenodd"/><path stroke="#000000" stroke-width="16.0" stroke-linejoin="round" stroke-linecap="butt" d="m297.2467 182.5958l0 0c0 -13.028702 10.561859 -23.590546 23.590576 -23.590546l0 0c6.256592 0 12.2569275 2.4854279 16.68103 6.9095154c4.4240723 4.4240875 6.9095154 10.424438 6.9095154 16.68103l0 0c0 13.028702 -10.561859 23.59056 -23.590546 23.59056l0 0c-13.028717 0 -23.590576 -10.561859 -23.590576 -23.59056z" fill-rule="evenodd"/><path fill="#000000" fill-opacity="0.0" d="m607.80316 180.75328l-257.25986 0" fill-rule="evenodd"/><path stroke="#000000" stroke-width="16.0" stroke-linejoin="round" stroke-linecap="butt" d="m607.80316 180.75328l-257.25986 0" fill-rule="evenodd"/><path fill="#000000" fill-opacity="0.0" d="m617.3779 126.43569l0 46.204735" fill-rule="evenodd"/><path stroke="#000000" stroke-width="16.0" stroke-linejoin="round" stroke-linecap="butt" d="m617.3779 126.43569l0 46.204735" fill-rule="evenodd"/><path fill="#000000" fill-opacity="0.0" d="m163.93964 200.54855c19.448822 0 29.173218 0.03149414 38.89763 0.06298828c9.724411 0.0315094 19.448822 0.06300354 38.897644 0.06300354" fill-rule="evenodd"/><path stroke="#000000" stroke-width="8.0" stroke-linejoin="round" stroke-linecap="butt" d="m186.33963 200.56726l0.69548035 9.765625E-4c6.0777435 0.011810303 10.939957 0.027557373 15.802155 0.043304443c9.724411 0.0315094 19.448822 0.06300354 38.897644 0.06300354" fill-rule="evenodd"/><path fill="#000000" stroke="#000000" stroke-width="8.0" stroke-linecap="butt" d="m167.93964 200.5519c0.0042419434 -5.081009 4.126663 -9.196548 9.207672 -9.1923065c5.081024 0.0042419434 9.196564 4.126663 9.192322 9.207672c-0.0042419434 5.081024 -4.126663 9.196564 -9.207687 9.192322c-5.081024 -0.0042419434 -9.196548 -4.126663 -9.1923065 -9.207687z" fill-rule="nonzero"/><g filter="url(#shadowFilter-p.6)"><use xlink:href="#p.6" transform="matrix(1.0 0.0 0.0 1.0 0.0 2.0)"/></g><defs><filter id="shadowFilter-p.6" filterUnits="userSpaceOnUse"><feGaussianBlur in="SourceAlpha" stdDeviation="2.0" result="blur"/><feComponentTransfer in="blur" color-interpolation-filters="sRGB"><feFuncR type="linear" slope="0" intercept="0.0"/><feFuncG type="linear" slope="0" intercept="0.0"/><feFuncB type="linear" slope="0" intercept="0.0"/><feFuncA type="linear" slope="0.5" intercept="0"/></feComponentTransfer></filter></defs><g id="p.6"><path fill="#000000" fill-opacity="0.0" d="m260.66928 200.67455l-83.87401 0" fill-rule="evenodd"/><path stroke="#000000" stroke-width="24.0" stroke-linejoin="round" stroke-linecap="butt" d="m260.66928 200.67455l-83.87401 0" fill-rule="evenodd"/></g><path fill="#000000" fill-opacity="0.0" d="m163.93964 280.83203c19.448822 0 29.173218 0.03149414 38.89763 0.06298828c9.724411 0.03149414 19.448822 0.06298828 38.897644 0.06298828" fill-rule="evenodd"/><path stroke="#000000" stroke-width="8.0" stroke-linejoin="round" stroke-linecap="butt" d="m186.33963 280.8507l0.69548035 0.0010070801c6.0777435 0.011810303 10.939957 0.027557373 15.802155 0.043304443c9.724411 0.03149414 19.448822 0.06298828 38.897644 0.06298828" fill-rule="evenodd"/><path fill="#000000" stroke="#000000" stroke-width="8.0" stroke-linecap="butt" d="m167.93964 280.83536c0.0042419434 -5.081024 4.126663 -9.196564 9.207672 -9.192322c5.081024 0.004272461 9.196564 4.1266785 9.192322 9.207703c-0.0042419434 5.081024 -4.126663 9.196564 -9.207687 9.192291c-5.081024 -0.0042419434 -9.196548 -4.126648 -9.1923065 -9.207672z" fill-rule="nonzero"/><g filter="url(#shadowFilter-p.7)"><use xlink:href="#p.7" transform="matrix(1.0 0.0 0.0 1.0 0.0 2.0)"/></g><defs><filter id="shadowFilter-p.7" filterUnits="userSpaceOnUse"><feGaussianBlur in="SourceAlpha" stdDeviation="2.0" result="blur"/><feComponentTransfer in="blur" color-interpolation-filters="sRGB"><feFuncR type="linear" slope="0" intercept="0.0"/><feFuncG type="linear" slope="0" intercept="0.0"/><feFuncB type="linear" slope="0" intercept="0.0"/><feFuncA type="linear" slope="0.5" intercept="0"/></feComponentTransfer></filter></defs><g id="p.7"><path fill="#000000" fill-opacity="0.0" d="m260.66928 280.958l-83.87401 0" fill-rule="evenodd"/><path stroke="#000000" stroke-width="24.0" stroke-linejoin="round" stroke-linecap="butt" d="m260.66928 280.958l-83.87401 0" fill-rule="evenodd"/></g><path fill="#000000" fill-opacity="0.0" d="m163.93964 361.11548c19.448822 0 29.173218 0.03149414 38.89763 0.06298828c9.724411 0.03149414 19.448822 0.06298828 38.897644 0.06298828" fill-rule="evenodd"/><path stroke="#000000" stroke-width="8.0" stroke-linejoin="round" stroke-linecap="butt" d="m186.33963 361.1342l0.69548035 9.765625E-4c6.0777435 0.011810303 10.939957 0.027557373 15.802155 0.043304443c9.724411 0.03149414 19.448822 0.06298828 38.897644 0.06298828" fill-rule="evenodd"/><path fill="#000000" stroke="#000000" stroke-width="8.0" stroke-linecap="butt" d="m167.93964 361.11884c0.0042419434 -5.081024 4.126663 -9.196564 9.207672 -9.192322c5.081024 0.0042419434 9.196564 4.1266785 9.192322 9.207672c-0.0042419434 5.081024 -4.126663 9.196564 -9.207687 9.192322c-5.081024 -0.0042419434 -9.196548 -4.126648 -9.1923065 -9.207672z" fill-rule="nonzero"/><g filter="url(#shadowFilter-p.8)"><use xlink:href="#p.8" transform="matrix(1.0 0.0 0.0 1.0 0.0 2.0)"/></g><defs><filter id="shadowFilter-p.8" filterUnits="userSpaceOnUse"><feGaussianBlur in="SourceAlpha" stdDeviation="2.0" result="blur"/><feComponentTransfer in="blur" color-interpolation-filters="sRGB"><feFuncR type="linear" slope="0" intercept="0.0"/><feFuncG type="linear" slope="0" intercept="0.0"/><feFuncB type="linear" slope="0" intercept="0.0"/><feFuncA type="linear" slope="0.5" intercept="0"/></feComponentTransfer></filter></defs><g id="p.8"><path fill="#000000" fill-opacity="0.0" d="m260.66928 361.24146l-83.87401 0" fill-rule="evenodd"/><path stroke="#000000" stroke-width="24.0" stroke-linejoin="round" stroke-linecap="butt" d="m260.66928 361.24146l-83.87401 0" fill-rule="evenodd"/></g><path fill="#000000" fill-opacity="0.0" d="m163.93964 521.68243c19.448822 0 29.173218 0.03149414 38.89763 0.06298828c9.724411 0.03149414 19.448822 0.06298828 38.897644 0.06298828" fill-rule="evenodd"/><path stroke="#000000" stroke-width="8.0" stroke-linejoin="round" stroke-linecap="butt" d="m186.33963 521.7011l0.69548035 9.765625E-4c6.0777435 0.01184082 10.939957 0.02758789 15.802155 0.04333496c9.724411 0.03149414 19.448822 0.06298828 38.897644 0.06298828" fill-rule="evenodd"/><path fill="#000000" stroke="#000000" stroke-width="8.0" stroke-linecap="butt" d="m167.93964 521.6857c0.0042419434 -5.0809937 4.126663 -9.196533 9.207672 -9.192261c5.081024 0.004211426 9.196564 4.126648 9.192322 9.207642c-0.0042419434 5.0810547 -4.126663 9.196594 -9.207687 9.192322c-5.081024 -0.004211426 -9.196548 -4.126648 -9.1923065 -9.207703z" fill-rule="nonzero"/><g filter="url(#shadowFilter-p.9)"><use xlink:href="#p.9" transform="matrix(1.0 0.0 0.0 1.0 0.0 2.0)"/></g><defs><filter id="shadowFilter-p.9" filterUnits="userSpaceOnUse"><feGaussianBlur in="SourceAlpha" stdDeviation="2.0" result="blur"/><feComponentTransfer in="blur" color-interpolation-filters="sRGB"><feFuncR type="linear" slope="0" intercept="0.0"/><feFuncG type="linear" slope="0" intercept="0.0"/><feFuncB type="linear" slope="0" intercept="0.0"/><feFuncA type="linear" slope="0.5" intercept="0"/></feComponentTransfer></filter></defs><g id="p.9"><path fill="#000000" fill-opacity="0.0" d="m260.66928 521.8084l-83.87401 0" fill-rule="evenodd"/><path stroke="#000000" stroke-width="24.0" stroke-linejoin="round" stroke-linecap="butt" d="m260.66928 521.8084l-83.87401 0" fill-rule="evenodd"/></g><path fill="#000000" fill-opacity="0.0" d="m163.93964 441.39896c19.448822 0 29.173218 0.03149414 38.89763 0.06298828c9.724411 0.03149414 19.448822 0.06298828 38.897644 0.06298828" fill-rule="evenodd"/><path stroke="#000000" stroke-width="8.0" stroke-linejoin="round" stroke-linecap="butt" d="m186.33963 441.41766l0.69548035 9.765625E-4c6.0777435 0.011810303 10.939957 0.027557373 15.802155 0.043304443c9.724411 0.03149414 19.448822 0.06298828 38.897644 0.06298828" fill-rule="evenodd"/><path fill="#000000" stroke="#000000" stroke-width="8.0" stroke-linecap="butt" d="m167.93964 441.40228c0.0042419434 -5.081024 4.126663 -9.196533 9.207672 -9.192291c5.081024 0.0042419434 9.196564 4.126648 9.192322 9.207672c-0.0042419434 5.081024 -4.126663 9.196564 -9.207687 9.192322c-5.081024 -0.0042419434 -9.196548 -4.1266785 -9.1923065 -9.207703z" fill-rule="nonzero"/><g filter="url(#shadowFilter-p.10)"><use xlink:href="#p.10" transform="matrix(1.0 0.0 0.0 1.0 0.0 2.0)"/></g><defs><filter id="shadowFilter-p.10" filterUnits="userSpaceOnUse"><feGaussianBlur in="SourceAlpha" stdDeviation="2.0" result="blur"/><feComponentTransfer in="blur" color-interpolation-filters="sRGB"><feFuncR type="linear" slope="0" intercept="0.0"/><feFuncG type="linear" slope="0" intercept="0.0"/><feFuncB type="linear" slope="0" intercept="0.0"/><feFuncA type="linear" slope="0.5" intercept="0"/></feComponentTransfer></filter></defs><g id="p.10"><path fill="#000000" fill-opacity="0.0" d="m260.66928 441.52493l-83.87401 0" fill-rule="evenodd"/><path stroke="#000000" stroke-width="24.0" stroke-linejoin="round" stroke-linecap="butt" d="m260.66928 441.52493l-83.87401 0" fill-rule="evenodd"/></g><path fill="#000000" fill-opacity="0.0" d="m640.70605 29.706038c0 19.448816 -0.03149414 29.173227 -0.06298828 38.897636c-0.03149414 9.724411 -0.06298828 19.448814 -0.06298828 38.897636" fill-rule="evenodd"/><path stroke="#000000" stroke-width="8.0" stroke-linejoin="round" stroke-linecap="butt" d="m640.6873 52.106026l-9.765625E-4 0.69548416c-0.011779785 6.077755 -0.027526855 10.9399605 -0.043273926 15.802166c-0.03149414 9.724411 -0.06298828 19.448814 -0.06298828 38.897636" fill-rule="evenodd"/><path fill="#000000" stroke="#000000" stroke-width="8.0" stroke-linecap="butt" d="m640.7027 33.706036c5.0809937 0.0042419434 9.196533 4.126663 9.192322 9.20768c-0.004272461 5.0810204 -4.126648 9.196556 -9.207703 9.192314c-5.0809937 -0.004245758 -9.196533 -4.126663 -9.192322 -9.207684c0.004272461 -5.0810165 4.126709 -9.196556 9.207703 -9.19231z" fill-rule="nonzero"/><g filter="url(#shadowFilter-p.11)"><use xlink:href="#p.11" transform="matrix(1.0 0.0 0.0 1.0 0.0 2.0)"/></g><defs><filter id="shadowFilter-p.11" filterUnits="userSpaceOnUse"><feGaussianBlur in="SourceAlpha" stdDeviation="2.0" result="blur"/><feComponentTransfer in="blur" color-interpolation-filters="sRGB"><feFuncR type="linear" slope="0" intercept="0.0"/><feFuncG type="linear" slope="0" intercept="0.0"/><feFuncB type="linear" slope="0" intercept="0.0"/><feFuncA type="linear" slope="0.5" intercept="0"/></feComponentTransfer></filter></defs><g id="p.11"><path fill="#000000" fill-opacity="0.0" d="m640.5801 126.43569l0 -83.87401" fill-rule="evenodd"/><path stroke="#000000" stroke-width="24.0" stroke-linejoin="round" stroke-linecap="butt" d="m640.5801 126.43569l0 -83.87401" fill-rule="evenodd"/></g><path fill="#000000" fill-opacity="0.0" d="m560.42255 29.706038c0 19.448816 -0.03149414 29.173227 -0.06298828 38.897636c-0.03149414 9.724411 -0.06298828 19.448814 -0.06298828 38.897636" fill-rule="evenodd"/><path stroke="#000000" stroke-width="8.0" stroke-linejoin="round" stroke-linecap="butt" d="m560.4039 52.106026l-9.765625E-4 0.69548416c-0.01184082 6.077755 -0.02758789 10.9399605 -0.04333496 15.802166c-0.03149414 9.724411 -0.06298828 19.448814 -0.06298828 38.897636" fill-rule="evenodd"/><path fill="#000000" stroke="#000000" stroke-width="8.0" stroke-linecap="butt" d="m560.41925 33.706036c5.0809937 0.0042419434 9.196533 4.126663 9.192322 9.20768c-0.004272461 5.0810204 -4.126709 9.196556 -9.207703 9.192314c-5.0810547 -0.004245758 -9.196594 -4.126663 -9.192322 -9.207684c0.004272461 -5.0810165 4.126648 -9.196556 9.207703 -9.19231z" fill-rule="nonzero"/><g filter="url(#shadowFilter-p.12)"><use xlink:href="#p.12" transform="matrix(1.0 0.0 0.0 1.0 0.0 2.0)"/></g><defs><filter id="shadowFilter-p.12" filterUnits="userSpaceOnUse"><feGaussianBlur in="SourceAlpha" stdDeviation="2.0" result="blur"/><feComponentTransfer in="blur" color-interpolation-filters="sRGB"><feFuncR type="linear" slope="0" intercept="0.0"/><feFuncG type="linear" slope="0" intercept="0.0"/><feFuncB type="linear" slope="0" intercept="0.0"/><feFuncA type="linear" slope="0.5" intercept="0"/></feComponentTransfer></filter></defs><g id="p.12"><path fill="#000000" fill-opacity="0.0" d="m560.2966 126.43569l0 -83.87401" fill-rule="evenodd"/><path stroke="#000000" stroke-width="24.0" stroke-linejoin="round" stroke-linecap="butt" d="m560.2966 126.43569l0 -83.87401" fill-rule="evenodd"/></g><path fill="#000000" fill-opacity="0.0" d="m480.1391 29.706038c0 19.448816 -0.03149414 29.173227 -0.06298828 38.897636c-0.03149414 9.724411 -0.06298828 19.448814 -0.06298828 38.897636" fill-rule="evenodd"/><path stroke="#000000" stroke-width="8.0" stroke-linejoin="round" stroke-linecap="butt" d="m480.1204 52.106026l-9.765625E-4 0.69548416c-0.011810303 6.077755 -0.027557373 10.9399605 -0.043304443 15.802166c-0.03149414 9.724411 -0.06298828 19.448814 -0.06298828 38.897636" fill-rule="evenodd"/><path fill="#000000" stroke="#000000" stroke-width="8.0" stroke-linecap="butt" d="m480.13577 33.706036c5.081024 0.0042419434 9.196564 4.126663 9.192291 9.20768c-0.0042419434 5.0810204 -4.126648 9.196556 -9.207672 9.192314c-5.081024 -0.004245758 -9.196564 -4.126663 -9.192322 -9.207684c0.004272461 -5.0810165 4.1266785 -9.196556 9.207703 -9.19231z" fill-rule="nonzero"/><g filter="url(#shadowFilter-p.13)"><use xlink:href="#p.13" transform="matrix(1.0 0.0 0.0 1.0 0.0 2.0)"/></g><defs><filter id="shadowFilter-p.13" filterUnits="userSpaceOnUse"><feGaussianBlur in="SourceAlpha" stdDeviation="2.0" result="blur"/><feComponentTransfer in="blur" color-interpolation-filters="sRGB"><feFuncR type="linear" slope="0" intercept="0.0"/><feFuncG type="linear" slope="0" intercept="0.0"/><feFuncB type="linear" slope="0" intercept="0.0"/><feFuncA type="linear" slope="0.5" intercept="0"/></feComponentTransfer></filter></defs><g id="p.13"><path fill="#000000" fill-opacity="0.0" d="m480.01312 126.43569l0 -83.87401" fill-rule="evenodd"/><path stroke="#000000" stroke-width="24.0" stroke-linejoin="round" stroke-linecap="butt" d="m480.01312 126.43569l0 -83.87401" fill-rule="evenodd"/></g><path fill="#000000" fill-opacity="0.0" d="m319.57217 29.706038c0 19.448816 -0.03149414 29.173227 -0.06298828 38.897636c-0.03149414 9.724411 -0.06298828 19.448814 -0.06298828 38.897636" fill-rule="evenodd"/><path stroke="#000000" stroke-width="8.0" stroke-linejoin="round" stroke-linecap="butt" d="m319.55347 52.106026l-9.765625E-4 0.69548416c-0.011810303 6.077755 -0.027557373 10.9399605 -0.043304443 15.802166c-0.03149414 9.724411 -0.06298828 19.448814 -0.06298828 38.897636" fill-rule="evenodd"/><path fill="#000000" stroke="#000000" stroke-width="8.0" stroke-linecap="butt" d="m319.56885 33.706036c5.0809937 0.0042419434 9.196533 4.126663 9.192291 9.20768c-0.0042419434 5.0810204 -4.126648 9.196556 -9.207672 9.192314c-5.081024 -0.004245758 -9.196564 -4.126663 -9.192322 -9.207684c0.0042419434 -5.0810165 4.1266785 -9.196556 9.207703 -9.19231z" fill-rule="nonzero"/><g filter="url(#shadowFilter-p.14)"><use xlink:href="#p.14" transform="matrix(1.0 0.0 0.0 1.0 0.0 2.0)"/></g><defs><filter id="shadowFilter-p.14" filterUnits="userSpaceOnUse"><feGaussianBlur in="SourceAlpha" stdDeviation="2.0" result="blur"/><feComponentTransfer in="blur" color-interpolation-filters="sRGB"><feFuncR type="linear" slope="0" intercept="0.0"/><feFuncG type="linear" slope="0" intercept="0.0"/><feFuncB type="linear" slope="0" intercept="0.0"/><feFuncA type="linear" slope="0.5" intercept="0"/></feComponentTransfer></filter></defs><g id="p.14"><path fill="#000000" fill-opacity="0.0" d="m319.4462 126.43569l0 -83.87401" fill-rule="evenodd"/><path stroke="#000000" stroke-width="24.0" stroke-linejoin="round" stroke-linecap="butt" d="m319.4462 126.43569l0 -83.87401" fill-rule="evenodd"/></g><path fill="#000000" fill-opacity="0.0" d="m399.85565 29.706038c0 19.448816 -0.03149414 29.173227 -0.06298828 38.897636c-0.03149414 9.724411 -0.0630188 19.448814 -0.0630188 38.897636" fill-rule="evenodd"/><path stroke="#000000" stroke-width="8.0" stroke-linejoin="round" stroke-linecap="butt" d="m399.83694 52.106026l-9.765625E-4 0.69548416c-0.011810303 6.077755 -0.027557373 10.9399605 -0.043304443 15.802166c-0.03149414 9.724411 -0.0630188 19.448814 -0.0630188 38.897636" fill-rule="evenodd"/><path fill="#000000" stroke="#000000" stroke-width="8.0" stroke-linecap="butt" d="m399.8523 33.706036c5.081024 0.0042419434 9.196564 4.126663 9.192322 9.20768c-0.0042419434 5.0810204 -4.1266785 9.196556 -9.207672 9.192314c-5.081024 -0.004245758 -9.196564 -4.126663 -9.192322 -9.207684c0.0042419434 -5.0810165 4.126648 -9.196556 9.207672 -9.19231z" fill-rule="nonzero"/><g filter="url(#shadowFilter-p.15)"><use xlink:href="#p.15" transform="matrix(1.0 0.0 0.0 1.0 0.0 2.0)"/></g><defs><filter id="shadowFilter-p.15" filterUnits="userSpaceOnUse"><feGaussianBlur in="SourceAlpha" stdDeviation="2.0" result="blur"/><feComponentTransfer in="blur" color-interpolation-filters="sRGB"><feFuncR type="linear" slope="0" intercept="0.0"/><feFuncG type="linear" slope="0" intercept="0.0"/><feFuncB type="linear" slope="0" intercept="0.0"/><feFuncA type="linear" slope="0.5" intercept="0"/></feComponentTransfer></filter></defs><g id="p.15"><path fill="#000000" fill-opacity="0.0" d="m399.72964 126.43569l0 -83.87401" fill-rule="evenodd"/><path stroke="#000000" stroke-width="24.0" stroke-linejoin="round" stroke-linecap="butt" d="m399.72964 126.43569l0 -83.87401" fill-rule="evenodd"/></g><path fill="#000000" fill-opacity="0.0" d="m322.03674 690.29395c0 -19.448792 0.03149414 -29.173218 0.06298828 -38.897644c0.03149414 -9.724365 0.06298828 -19.448792 0.06298828 -38.897644" fill-rule="evenodd"/><path stroke="#000000" stroke-width="8.0" stroke-linejoin="round" stroke-linecap="butt" d="m322.05545 667.894l9.765625E-4 -0.6954956c0.011810303 -6.077759 0.027557373 -10.939941 0.043304443 -15.802185c0.03149414 -9.724365 0.06298828 -19.448792 0.06298828 -38.897644" fill-rule="evenodd"/><path fill="#000000" stroke="#000000" stroke-width="8.0" stroke-linecap="butt" d="m322.0401 686.29395c-5.081024 -0.004211426 -9.196564 -4.126648 -9.192322 -9.207642c0.0042419434 -5.0810547 4.126648 -9.196594 9.207672 -9.192322c5.081024 0.004211426 9.196564 4.126648 9.192322 9.207642c-0.0042419434 5.0810547 -4.1266785 9.196594 -9.207672 9.192322z" fill-rule="nonzero"/><g filter="url(#shadowFilter-p.16)"><use xlink:href="#p.16" transform="matrix(1.0 0.0 0.0 1.0 0.0 2.0)"/></g><defs><filter id="shadowFilter-p.16" filterUnits="userSpaceOnUse"><feGaussianBlur in="SourceAlpha" stdDeviation="2.0" result="blur"/><feComponentTransfer in="blur" color-interpolation-filters="sRGB"><feFuncR type="linear" slope="0" intercept="0.0"/><feFuncG type="linear" slope="0" intercept="0.0"/><feFuncB type="linear" slope="0" intercept="0.0"/><feFuncA type="linear" slope="0.5" intercept="0"/></feComponentTransfer></filter></defs><g id="p.16"><path fill="#000000" fill-opacity="0.0" d="m322.16272 593.56433l0 83.87396" fill-rule="evenodd"/><path stroke="#000000" stroke-width="24.0" stroke-linejoin="round" stroke-linecap="butt" d="m322.16272 593.56433l0 83.87396" fill-rule="evenodd"/></g><path fill="#000000" fill-opacity="0.0" d="m402.32022 690.29395c0 -19.448792 0.03149414 -29.173218 0.06298828 -38.897644c0.03149414 -9.724365 0.06298828 -19.448792 0.06298828 -38.897644" fill-rule="evenodd"/><path stroke="#000000" stroke-width="8.0" stroke-linejoin="round" stroke-linecap="butt" d="m402.3389 667.894l0.0010070801 -0.6954956c0.011810303 -6.077759 0.027557373 -10.939941 0.043304443 -15.802185c0.03149414 -9.724365 0.06298828 -19.448792 0.06298828 -38.897644" fill-rule="evenodd"/><path fill="#000000" stroke="#000000" stroke-width="8.0" stroke-linecap="butt" d="m402.32355 686.29395c-5.081024 -0.004211426 -9.196564 -4.126648 -9.192322 -9.207642c0.0042419434 -5.0810547 4.1266785 -9.196594 9.207703 -9.192322c5.081024 0.004211426 9.196533 4.126648 9.192291 9.207642c-0.0042419434 5.0810547 -4.126648 9.196594 -9.207672 9.192322z" fill-rule="nonzero"/><g filter="url(#shadowFilter-p.17)"><use xlink:href="#p.17" transform="matrix(1.0 0.0 0.0 1.0 0.0 2.0)"/></g><defs><filter id="shadowFilter-p.17" filterUnits="userSpaceOnUse"><feGaussianBlur in="SourceAlpha" stdDeviation="2.0" result="blur"/><feComponentTransfer in="blur" color-interpolation-filters="sRGB"><feFuncR type="linear" slope="0" intercept="0.0"/><feFuncG type="linear" slope="0" intercept="0.0"/><feFuncB type="linear" slope="0" intercept="0.0"/><feFuncA type="linear" slope="0.5" intercept="0"/></feComponentTransfer></filter></defs><g id="p.17"><path fill="#000000" fill-opacity="0.0" d="m402.4462 593.56433l0 83.87396" fill-rule="evenodd"/><path stroke="#000000" stroke-width="24.0" stroke-linejoin="round" stroke-linecap="butt" d="m402.4462 593.56433l0 83.87396" fill-rule="evenodd"/></g><path fill="#000000" fill-opacity="0.0" d="m482.60367 690.29395c0 -19.448792 0.03149414 -29.173218 0.06298828 -38.897644c0.03149414 -9.724365 0.06298828 -19.448792 0.06298828 -38.897644" fill-rule="evenodd"/><path stroke="#000000" stroke-width="8.0" stroke-linejoin="round" stroke-linecap="butt" d="m482.62238 667.894l9.765625E-4 -0.6954956c0.011810303 -6.077759 0.027557373 -10.939941 0.043304443 -15.802185c0.03149414 -9.724365 0.06298828 -19.448792 0.06298828 -38.897644" fill-rule="evenodd"/><path fill="#000000" stroke="#000000" stroke-width="8.0" stroke-linecap="butt" d="m482.60703 686.29395c-5.081024 -0.004211426 -9.196564 -4.126648 -9.192322 -9.207642c0.0042419434 -5.0810547 4.1266785 -9.196594 9.207672 -9.192322c5.081024 0.004211426 9.196564 4.126648 9.192322 9.207642c-0.0042419434 5.0810547 -4.1266785 9.196594 -9.207672 9.192322z" fill-rule="nonzero"/><g filter="url(#shadowFilter-p.18)"><use xlink:href="#p.18" transform="matrix(1.0 0.0 0.0 1.0 0.0 2.0)"/></g><defs><filter id="shadowFilter-p.18" filterUnits="userSpaceOnUse"><feGaussianBlur in="SourceAlpha" stdDeviation="2.0" result="blur"/><feComponentTransfer in="blur" color-interpolation-filters="sRGB"><feFuncR type="linear" slope="0" intercept="0.0"/><feFuncG type="linear" slope="0" intercept="0.0"/><feFuncB type="linear" slope="0" intercept="0.0"/><feFuncA type="linear" slope="0.5" intercept="0"/></feComponentTransfer></filter></defs><g id="p.18"><path fill="#000000" fill-opacity="0.0" d="m482.72964 593.56433l0 83.87396" fill-rule="evenodd"/><path stroke="#000000" stroke-width="24.0" stroke-linejoin="round" stroke-linecap="butt" d="m482.72964 593.56433l0 83.87396" fill-rule="evenodd"/></g><path fill="#000000" fill-opacity="0.0" d="m643.1706 690.29395c0 -19.448792 0.03149414 -29.173218 0.06298828 -38.897644c0.03149414 -9.724365 0.06298828 -19.448792 0.06298828 -38.897644" fill-rule="evenodd"/><path stroke="#000000" stroke-width="8.0" stroke-linejoin="round" stroke-linecap="butt" d="m643.18933 667.894l9.765625E-4 -0.6954956c0.011779785 -6.077759 0.027526855 -10.939941 0.043273926 -15.802185c0.03149414 -9.724365 0.06298828 -19.448792 0.06298828 -38.897644" fill-rule="evenodd"/><path fill="#000000" stroke="#000000" stroke-width="8.0" stroke-linecap="butt" d="m643.17395 686.29395c-5.0809937 -0.004211426 -9.196533 -4.126648 -9.192322 -9.207642c0.004272461 -5.0810547 4.126648 -9.196594 9.207703 -9.192322c5.0809937 0.004211426 9.196533 4.126648 9.192322 9.207642c-0.004272461 5.0810547 -4.126709 9.196594 -9.207703 9.192322z" fill-rule="nonzero"/><g filter="url(#shadowFilter-p.19)"><use xlink:href="#p.19" transform="matrix(1.0 0.0 0.0 1.0 0.0 2.0)"/></g><defs><filter id="shadowFilter-p.19" filterUnits="userSpaceOnUse"><feGaussianBlur in="SourceAlpha" stdDeviation="2.0" result="blur"/><feComponentTransfer in="blur" color-interpolation-filters="sRGB"><feFuncR type="linear" slope="0" intercept="0.0"/><feFuncG type="linear" slope="0" intercept="0.0"/><feFuncB type="linear" slope="0" intercept="0.0"/><feFuncA type="linear" slope="0.5" intercept="0"/></feComponentTransfer></filter></defs><g id="p.19"><path fill="#000000" fill-opacity="0.0" d="m643.2966 593.56433l0 83.87396" fill-rule="evenodd"/><path stroke="#000000" stroke-width="24.0" stroke-linejoin="round" stroke-linecap="butt" d="m643.2966 593.56433l0 83.87396" fill-rule="evenodd"/></g><path fill="#000000" fill-opacity="0.0" d="m562.88715 690.29395c0 -19.448792 0.03149414 -29.173218 0.06298828 -38.897644c0.03149414 -9.724365 0.06298828 -19.448792 0.06298828 -38.897644" fill-rule="evenodd"/><path stroke="#000000" stroke-width="8.0" stroke-linejoin="round" stroke-linecap="butt" d="m562.9058 667.894l9.765625E-4 -0.6954956c0.01184082 -6.077759 0.02758789 -10.939941 0.04333496 -15.802185c0.03149414 -9.724365 0.06298828 -19.448792 0.06298828 -38.897644" fill-rule="evenodd"/><path fill="#000000" stroke="#000000" stroke-width="8.0" stroke-linecap="butt" d="m562.8905 686.29395c-5.0810547 -0.004211426 -9.196594 -4.126648 -9.192322 -9.207642c0.004211426 -5.0810547 4.126648 -9.196594 9.207642 -9.192322c5.0810547 0.004211426 9.196594 4.126648 9.192322 9.207642c-0.004211426 5.0810547 -4.126648 9.196594 -9.207642 9.192322z" fill-rule="nonzero"/><g filter="url(#shadowFilter-p.20)"><use xlink:href="#p.20" transform="matrix(1.0 0.0 0.0 1.0 0.0 2.0)"/></g><defs><filter id="shadowFilter-p.20" filterUnits="userSpaceOnUse"><feGaussianBlur in="SourceAlpha" stdDeviation="2.0" result="blur"/><feComponentTransfer in="blur" color-interpolation-filters="sRGB"><feFuncR type="linear" slope="0" intercept="0.0"/><feFuncG type="linear" slope="0" intercept="0.0"/><feFuncB type="linear" slope="0" intercept="0.0"/><feFuncA type="linear" slope="0.5" intercept="0"/></feComponentTransfer></filter></defs><g id="p.20"><path fill="#000000" fill-opacity="0.0" d="m563.0131 593.56433l0 83.87396" fill-rule="evenodd"/><path stroke="#000000" stroke-width="24.0" stroke-linejoin="round" stroke-linecap="butt" d="m563.0131 593.56433l0 83.87396" fill-rule="evenodd"/></g><path fill="#000000" fill-opacity="0.0" d="m601.7008 182.2231l17.417297 -15.716537" fill-rule="evenodd"/><path stroke="#000000" stroke-width="16.0" stroke-linejoin="round" stroke-linecap="butt" d="m601.7008 182.2231l17.417297 -15.716537" fill-rule="evenodd"/><path fill="#000000" fill-opacity="0.0" d="m322.16272 567.8399l17.417328 -15.716553" fill-rule="evenodd"/><path stroke="#000000" stroke-width="16.0" stroke-linejoin="round" stroke-linecap="butt" d="m322.16272 567.8399l17.417328 -15.716553" fill-rule="evenodd"/></g></svg>